<mxfile host="app.diagrams.net" agent="Mozilla/5.0 (Windows NT 10.0; Win64; x64) AppleWebKit/537.36 (KHTML, like Gecko) Chrome/131.0.0.0 Safari/537.36" version="24.8.6">
  <diagram id="C5RBs43oDa-KdzZeNtuy" name="Page-1">
    <mxGraphModel dx="1150" dy="490" grid="1" gridSize="10" guides="1" tooltips="1" connect="1" arrows="1" fold="1" page="1" pageScale="1" pageWidth="827" pageHeight="1169" math="0" shadow="0">
      <root>
        <mxCell id="WIyWlLk6GJQsqaUBKTNV-0" />
        <mxCell id="WIyWlLk6GJQsqaUBKTNV-1" parent="WIyWlLk6GJQsqaUBKTNV-0" />
        <mxCell id="wXTXyeE7bmMzVlPmo3qp-2" value="" style="edgeStyle=orthogonalEdgeStyle;rounded=0;orthogonalLoop=1;jettySize=auto;html=1;strokeColor=#00FF00;" edge="1" parent="WIyWlLk6GJQsqaUBKTNV-1" source="wXTXyeE7bmMzVlPmo3qp-0" target="wXTXyeE7bmMzVlPmo3qp-1">
          <mxGeometry relative="1" as="geometry">
            <Array as="points">
              <mxPoint x="250" y="180" />
              <mxPoint x="260" y="180" />
            </Array>
          </mxGeometry>
        </mxCell>
        <mxCell id="wXTXyeE7bmMzVlPmo3qp-0" value="&lt;font style=&quot;vertical-align: inherit;&quot;&gt;&lt;font style=&quot;vertical-align: inherit;&quot;&gt;Start&lt;/font&gt;&lt;/font&gt;" style="ellipse;whiteSpace=wrap;html=1;" vertex="1" parent="WIyWlLk6GJQsqaUBKTNV-1">
          <mxGeometry x="200" y="90" width="120" height="80" as="geometry" />
        </mxCell>
        <mxCell id="wXTXyeE7bmMzVlPmo3qp-4" value="" style="edgeStyle=orthogonalEdgeStyle;rounded=0;orthogonalLoop=1;jettySize=auto;html=1;strokeColor=#33FF33;" edge="1" parent="WIyWlLk6GJQsqaUBKTNV-1" source="wXTXyeE7bmMzVlPmo3qp-1" target="wXTXyeE7bmMzVlPmo3qp-3">
          <mxGeometry relative="1" as="geometry" />
        </mxCell>
        <mxCell id="wXTXyeE7bmMzVlPmo3qp-1" value="&lt;font style=&quot;vertical-align: inherit;&quot;&gt;&lt;font style=&quot;vertical-align: inherit;&quot;&gt;Numbera,numberb,total&lt;/font&gt;&lt;/font&gt;&lt;div&gt;&lt;font style=&quot;vertical-align: inherit;&quot;&gt;&lt;font style=&quot;vertical-align: inherit;&quot;&gt;&lt;br&gt;&lt;/font&gt;&lt;/font&gt;&lt;/div&gt;" style="whiteSpace=wrap;html=1;" vertex="1" parent="WIyWlLk6GJQsqaUBKTNV-1">
          <mxGeometry x="200" y="220" width="140" height="60" as="geometry" />
        </mxCell>
        <mxCell id="wXTXyeE7bmMzVlPmo3qp-6" value="" style="edgeStyle=orthogonalEdgeStyle;rounded=0;orthogonalLoop=1;jettySize=auto;html=1;strokeColor=#66FF66;" edge="1" parent="WIyWlLk6GJQsqaUBKTNV-1" source="wXTXyeE7bmMzVlPmo3qp-3" target="wXTXyeE7bmMzVlPmo3qp-5">
          <mxGeometry relative="1" as="geometry" />
        </mxCell>
        <mxCell id="wXTXyeE7bmMzVlPmo3qp-3" value="&lt;font style=&quot;vertical-align: inherit;&quot;&gt;&lt;font style=&quot;vertical-align: inherit;&quot;&gt;Number a, numberb&lt;/font&gt;&lt;/font&gt;" style="shape=parallelogram;perimeter=parallelogramPerimeter;whiteSpace=wrap;html=1;fixedSize=1;" vertex="1" parent="WIyWlLk6GJQsqaUBKTNV-1">
          <mxGeometry x="205" y="330" width="130" height="60" as="geometry" />
        </mxCell>
        <mxCell id="wXTXyeE7bmMzVlPmo3qp-8" value="" style="edgeStyle=orthogonalEdgeStyle;rounded=0;orthogonalLoop=1;jettySize=auto;html=1;strokeColor=#00FF00;" edge="1" parent="WIyWlLk6GJQsqaUBKTNV-1" source="wXTXyeE7bmMzVlPmo3qp-5" target="wXTXyeE7bmMzVlPmo3qp-7">
          <mxGeometry relative="1" as="geometry" />
        </mxCell>
        <mxCell id="wXTXyeE7bmMzVlPmo3qp-5" value="&lt;font style=&quot;vertical-align: inherit;&quot;&gt;&lt;font style=&quot;vertical-align: inherit;&quot;&gt;total= min numbera,numberb&lt;/font&gt;&lt;/font&gt;" style="whiteSpace=wrap;html=1;" vertex="1" parent="WIyWlLk6GJQsqaUBKTNV-1">
          <mxGeometry x="210" y="440" width="120" height="40" as="geometry" />
        </mxCell>
        <mxCell id="wXTXyeE7bmMzVlPmo3qp-7" value="&lt;font style=&quot;vertical-align: inherit;&quot;&gt;&lt;font style=&quot;vertical-align: inherit;&quot;&gt;end&lt;/font&gt;&lt;/font&gt;" style="ellipse;whiteSpace=wrap;html=1;" vertex="1" parent="WIyWlLk6GJQsqaUBKTNV-1">
          <mxGeometry x="230" y="540" width="80" height="80" as="geometry" />
        </mxCell>
      </root>
    </mxGraphModel>
  </diagram>
</mxfile>
